<?xml version="1.0" standalone="no"?>
<!DOCTYPE svg PUBLIC "-//W3C//DTD SVG 20010904//EN"
 "http://www.w3.org/TR/2001/REC-SVG-20010904/DTD/svg10.dtd">
<svg version="1.0" xmlns="http://www.w3.org/2000/svg"
 width="260.000000pt" height="260.000000pt" viewBox="0 0 260.000000 260.000000"
 preserveAspectRatio="xMidYMid meet">
<metadata>
Created by potrace 1.11, written by Peter Selinger 2001-2013
</metadata>
<g transform="translate(0.000000,260.000000) scale(0.100000,-0.100000)"
fill="#000000" stroke="none">
<path d="M1704 2423 c-11 -10 -54 -61 -94 -113 -41 -52 -77 -97 -81 -100 -16
-13 -30 -54 -25 -74 5 -21 -3 -26 -112 -66 -64 -24 -130 -49 -147 -56 -16 -7
-93 -35 -170 -64 -77 -28 -151 -59 -165 -68 -38 -24 -90 -80 -90 -97 0 -8 -4
-15 -9 -15 -4 0 -19 -22 -32 -50 -13 -27 -27 -50 -31 -50 -5 0 -8 -4 -8 -10 0
-5 -27 -54 -60 -107 -78 -128 -88 -182 -55 -294 5 -13 -9 -16 -95 -16 -81 -1
-103 -4 -117 -19 -17 -16 -18 -50 -18 -458 l0 -441 -75 -1 c-63 -2 -77 -5 -92
-24 -22 -27 -22 -39 -2 -68 l15 -22 802 1 c441 0 810 4 820 8 10 4 18 10 18
14 0 4 2 14 5 22 4 8 -1 26 -10 40 -17 26 -30 29 -121 26 l-50 -2 0 322 0 321
24 17 c32 22 191 181 191 191 0 5 6 15 13 22 36 37 233 400 285 525 12 28 17
32 42 26 68 -13 146 28 169 91 11 28 15 273 5 299 -5 14 -625 287 -684 302
-18 4 -32 0 -46 -12z m171 -158 c61 -26 124 -53 140 -60 17 -7 80 -34 140 -60
61 -26 125 -54 143 -62 l32 -15 0 -90 c0 -87 -10 -128 -31 -128 -20 0 -660
323 -651 329 4 3 23 26 42 51 19 25 40 51 47 58 7 7 13 18 13 23 0 6 4 8 8 5
4 -2 57 -26 117 -51z m253 -460 c13 -12 -173 -377 -255 -501 -21 -31 -42 -64
-48 -72 -21 -33 -132 -140 -180 -174 -62 -44 -95 -61 -169 -87 -33 -11 -66
-27 -76 -36 -9 -8 -20 -15 -24 -15 -4 0 -50 -27 -103 -60 -52 -33 -97 -60 -99
-60 -3 0 -22 -11 -44 -25 -85 -54 -176 -16 -186 78 -6 49 22 84 112 142 46 30
87 55 90 55 3 0 19 9 34 20 16 11 55 33 87 49 48 24 61 36 72 68 15 43 93 158
146 217 37 40 41 56 25 86 -10 18 -25 23 -112 35 -46 6 -111 31 -160 62 -55
34 -89 30 -102 -13 -11 -34 -179 -144 -221 -144 -9 0 -27 -11 -40 -24 -22 -22
-23 -28 -14 -55 6 -17 15 -31 19 -31 7 0 50 -64 50 -74 0 -2 -39 -3 -86 -3
l-85 1 -21 44 c-34 76 -29 93 83 283 57 96 112 184 123 196 16 19 120 68 166
78 8 2 132 48 275 103 l260 98 240 -119 c132 -66 241 -120 243 -122z m-816
-374 l37 -12 -38 -57 c-21 -31 -46 -71 -54 -88 l-16 -31 -91 0 -91 0 -25 49
c-14 28 -24 51 -22 52 2 1 26 15 53 31 52 29 128 85 133 97 2 4 20 -1 40 -11
20 -10 54 -24 74 -30z"/>
</g>
</svg>
